HIERARCHY
ROOT RootJoint
{
    OFFSET   0.000000   0.000000   0.000000
    CHANNELS 6 Xposition Yposition Zposition Xrotation Yrotation Zrotation
    JOINT pelvis_lowerback
    {
        OFFSET   0.000000   0.093605   0.000000
        CHANNELS 3 Xrotation Yrotation Zrotation
        JOINT lowerback_torso
        {
            OFFSET   0.000000   0.100000   0.000000
            CHANNELS 3 Xrotation Yrotation Zrotation
            JOINT torso_head
            {
                OFFSET   0.000000   0.282350   0.000000
                CHANNELS 3 Xrotation Yrotation Zrotation
                End Site
                {
                    OFFSET   0.000000   0.192650   0.000000
                }
            }
            JOINT rTorso_Clavicle
            {
                OFFSET  -0.001000   0.157500   0.000000
                CHANNELS 3 Xrotation Yrotation Zrotation
                JOINT rShoulder
                {
                    OFFSET  -0.117647   0.000000   0.000000
                    CHANNELS 3 Xrotation Yrotation Zrotation
                    JOINT rElbow
                    {
                        OFFSET  -0.245000   0.000000   0.000000
                        CHANNELS 3 Xrotation Yrotation Zrotation
                        JOINT rWrist
                        {
                            OFFSET  -0.240000   0.000000   0.000000
                            CHANNELS 3 Xrotation Yrotation Zrotation
                            End Site
                            {
                                OFFSET  -0.116353  -0.002500   0.000000
                            }
                        }
                    }
                }
            }
            JOINT lTorso_Clavicle
            {
                OFFSET   0.001000   0.157500   0.000000
                CHANNELS 3 Xrotation Yrotation Zrotation
                JOINT lShoulder
                {
                    OFFSET   0.117647   0.000000   0.000000
                    CHANNELS 3 Xrotation Yrotation Zrotation
                    JOINT lElbow
                    {
                        OFFSET   0.245000   0.000000   0.000000
                        CHANNELS 3 Xrotation Yrotation Zrotation
                        JOINT lWrist
                        {
                            OFFSET   0.240000   0.000000   0.000000
                            CHANNELS 3 Xrotation Yrotation Zrotation
                            End Site
                            {
                                OFFSET   0.116353  -0.002500   0.000000
                            }
                        }
                    }
                }
            }
        }
    }
    JOINT rHip
    {
        OFFSET  -0.100000  -0.051395   0.000000
        CHANNELS 3 Xrotation Yrotation Zrotation
        JOINT rKnee
        {
            OFFSET   0.000000  -0.410000   0.000000
            CHANNELS 3 Xrotation Yrotation Zrotation
            JOINT rAnkle
            {
                OFFSET   0.000000  -0.390000   0.000000
                CHANNELS 3 Xrotation Yrotation Zrotation
                JOINT rToeJoint
                {
                    OFFSET   0.000000  -0.050000   0.130000
                    CHANNELS 3 Xrotation Yrotation Zrotation
                    End Site
                    {
                        OFFSET  -0.010000   0.002000   0.060000
                    }
                }
            }
        }
    }
    JOINT lHip
    {
        OFFSET   0.100000  -0.051395   0.000000
        CHANNELS 3 Xrotation Yrotation Zrotation
        JOINT lKnee
        {
            OFFSET   0.000000  -0.410000   0.000000
            CHANNELS 3 Xrotation Yrotation Zrotation
            JOINT lAnkle
            {
                OFFSET   0.000000  -0.390000   0.000000
                CHANNELS 3 Xrotation Yrotation Zrotation
                JOINT lToeJoint
                {
                    OFFSET   0.000000  -0.050000   0.130000
                    CHANNELS 3 Xrotation Yrotation Zrotation
                    End Site
                    {
                        OFFSET   0.010000   0.002000   0.060000
                    }
                }
            }
        }
    }
}
MOTION
Frames: 10
Frame Time:   0.008333
 -2.376719   0.925631   3.975860   0.000000   0.000000   0.000000   0.000000   0.000000   0.000000   0.000000   0.000000   0.000000   0.000000   0.000000   0.000000   0.000000   0.000000   0.000000   0.000000   0.000000   0.000000   0.000000   0.000000   0.000000   0.000000   0.000000   0.000000   0.000000   0.000000   0.000000   0.000000   0.000000   0.000000   0.000000   0.000000   0.000000   0.000000   0.000000   0.000000   0.000000   0.000000   0.000000   0.000000   0.000000   0.000000   0.000000   0.000000   0.000000   0.000000   0.000000   0.000000   0.000000   0.000000   0.000000   0.000000   0.000000   0.000000   0.000000   0.000000   0.000000   0.000000   0.000000   0.000000
 -2.376864   0.925815   3.976033  -0.202665   0.146389  -0.081939   0.077451   0.037723  -0.041651   0.113883  -0.157271   0.156449   0.070558   0.216352  -0.036688   0.259485  -0.604596  -0.322671   0.409835   0.055960   2.441828   0.067854   3.573676  -0.022347   0.089188  -1.537655  -2.708250   0.001632   0.402410   0.234290   0.827764   0.058212  -2.394065   0.066986  -3.556496   0.027171   0.160015   1.491490   2.653401   0.121250   0.007001  -0.082329   0.438294   0.000632   0.000583  -0.623155  -0.170130  -0.045546   0.145697   0.000266  -0.000021  -0.065711  -0.136431   0.313832   0.998939  -0.002022   0.000110  -1.044608   0.284679   0.016335  -0.069477   0.000150  -0.000178
 -2.377086   0.926196   3.976230  -0.472224   0.307843  -0.175809   0.111347   0.072681  -0.089575   0.238070  -0.324297   0.313517   0.164413   0.427678  -0.065552   0.508262  -1.065112  -0.049638   0.791457   0.283253   5.348371   0.160925   7.280574  -0.037335   0.203149  -2.074463  -4.818524   0.010318   0.641458  -0.129577   1.600493  -0.085596  -5.157199   0.158103  -7.250006   0.046140   0.350033   1.984739   4.680411   0.293445   0.015390  -0.306004   0.925531   0.001876   0.001162  -1.206792  -0.330702  -0.090804   0.244717   0.000526  -0.000009  -0.053468  -0.256997   0.817291   2.071744  -0.005438   0.000627  -2.019242   0.556806   0.038790  -0.173258   0.000512  -0.000423
 -2.377365   0.926436   3.976406  -0.750678   0.468912  -0.264845   0.108860   0.098047  -0.147422   0.331001  -0.490321   0.447411   0.241212   0.625678  -0.090164   0.745232  -1.389662   0.613349   1.141561   0.618082   8.556403   0.259767  11.022099  -0.046401   0.319072  -2.244956  -6.226392   0.021665   0.749545  -0.900001   2.302694  -0.346367  -8.056879   0.252885 -10.982446   0.058071   0.539436   2.095289   5.967891   0.464922   0.019674  -0.661818   1.397452   0.003367   0.001548  -1.751261  -0.481777  -0.135643   0.330663   0.000788   0.000001  -0.000546  -0.363769   1.456942   3.104960  -0.009270   0.001336  -2.927344   0.813219   0.065529  -0.268452   0.000889  -0.000595
 -2.377697   0.926286   3.976544  -1.023817   0.623545  -0.346475   0.084066   0.115000  -0.216060   0.396509  -0.652685   0.556058   0.299476   0.810555  -0.113225   0.974393  -1.620834   1.516670   1.462249   1.028818  11.971287   0.354371  14.779530  -0.051993   0.429532  -2.265576  -7.090276   0.037791   0.775903  -1.923260   2.940769  -0.682405 -10.985018   0.341038 -14.734434   0.065757   0.720618   2.040460   6.686803   0.622481   0.019871  -1.126794   1.840397   0.004849   0.001737  -2.259893  -0.623915  -0.179869   0.404833   0.001014   0.000006   0.076583  -0.459220   2.200929   4.081009  -0.012979   0.002111  -3.774941   1.054169   0.095568  -0.359074   0.001259  -0.000712
 -2.378034   0.925542   3.976633  -1.287855   0.770700  -0.424412   0.049312   0.126097  -0.285740   0.446810  -0.808738   0.659321   0.342736   0.982918  -0.141015   1.202706  -1.784188   2.617790   1.741146   1.467140  15.349847   0.436537  18.546048  -0.055378   0.528256  -2.215560  -7.472004   0.060506   0.751207  -3.102098   3.521122  -1.067695 -13.877964   0.417288 -18.496891   0.071294   0.889415   1.909532   6.991854   0.762712   0.016789  -1.679254   2.252464   0.006192   0.001772  -2.735220  -0.757461  -0.223189   0.468738   0.001187   0.000006   0.168826  -0.545335   3.023221   4.999055  -0.016237   0.002885  -4.566458   1.280209   0.128134  -0.446036   0.001597  -0.000788
 -2.378350   0.924051   3.976664  -1.541166   0.909417  -0.498767   0.013677   0.132305  -0.350550   0.491974  -0.958453   0.760611   0.374945   1.143742  -0.169964   1.430711  -1.900560   3.823273   1.983270   1.915963  18.630751   0.503725  22.316383  -0.057801   0.613997  -2.140673  -7.529355   0.090418   0.695028  -4.360625   4.049091  -1.483815 -16.689520   0.479606 -22.265072   0.076058   1.044506   1.745739   7.010837   0.884393   0.011442  -2.301380   2.634495   0.007321   0.001697  -3.179425  -0.882840  -0.265453   0.524136   0.001308   0.000004   0.270153  -0.623509   3.900270   5.860974  -0.018891   0.003606  -5.305654   1.491898   0.162465  -0.528691   0.001881  -0.000827
 -2.378595   0.921329   3.976255  -1.595203   0.951159  -0.777870  -0.100872   0.192547  -0.083112   0.507448  -1.024103   0.816510   0.321972   1.301975  -0.156861   1.567754  -2.064280   4.493286   2.469618   2.420434  21.752851   0.543023  26.101280  -0.069241   0.671494  -1.995179  -6.864151   0.341999   0.670621  -5.019496   4.532869  -2.057416 -19.742656   0.522296 -26.065860   0.090822   1.217676   1.434318   6.488781   0.504436  -0.152494  -2.629443   3.832721   0.012151  -0.000656  -3.894976  -0.998147   0.006088   0.634033   0.001370  -0.000244   0.354731  -0.378699   4.922389   5.649876  -0.013818   0.002167  -5.099271   1.838855   0.316070  -0.368485   0.000248   0.000219
 -2.378630   0.920762   3.976039  -1.716509   1.176731  -0.693958  -0.149710   0.183497  -0.085635   0.572674  -1.131039   0.765023   0.276141   1.448854  -0.139014   1.714856  -2.232775   5.202199   2.911995   2.902746  24.671849   0.570986  29.874996  -0.080710   0.730417  -1.889993  -6.245611   0.581962   0.622478  -5.709066   4.962177  -2.630533 -22.593661   0.553974 -29.859685   0.102872   1.394047   1.121837   5.957644   0.283720  -0.327178  -3.215643   5.047843   0.015068  -0.000837  -4.549268  -1.113384   0.255644   0.803557   0.001477  -0.000325   0.253005   0.060176   4.929170   5.799079  -0.011074   0.002663  -4.358371   2.318816   0.135931  -0.136913   0.000345   0.002523
 -2.379172   0.920866   3.975794  -1.760140   1.134948  -0.774667  -0.224907   0.297124   0.050665   0.626865  -1.141745   0.761868   0.231166   1.590398  -0.119884   1.853246  -2.358229   5.782193   3.304249   3.395835  27.359875   0.585092  33.656089  -0.090960   0.787577  -1.769821  -5.624593   0.828650   0.608084  -6.308551   5.356764  -3.168385 -25.248940   0.572408 -33.651726   0.114445   1.554781   0.833184   5.391555  -0.025408  -0.460678  -3.477472   6.205556   0.015269  -0.003264  -5.158243  -1.218016   0.489967   0.954071   0.001319  -0.000668   0.315874   0.151169   5.061195   5.730352  -0.008835   0.002087  -4.319956   2.425130   0.110893  -0.068813   0.000264   0.002111
